Coordinates
version=1
nRows=26
nColumns=24
inDegrees=yes

Units are S.I. units (second, meters, Newtons, ...)
Angles are in degrees.

endheader
time	pelvis_tilt	pelvis_list	pelvis_rotation	pelvis_tx	pelvis_ty	pelvis_tz	hip_flexion_r	hip_adduction_r	hip_rotation_r	knee_angle_r	ankle_angle_r	subtalar_angle_r	mtp_angle_r	hip_flexion_l	hip_adduction_l	hip_rotation_l	knee_angle_l	ankle_angle_l	subtalar_angle_l	mtp_angle_l	lumbar_extension	lumbar_bending	lumbar_rotation
      1.04400000	     -1.69276217	     -1.00597816	     -2.78008853	     -0.14704516	      0.96903901	      0.32400209	    -11.51732937	      4.02888446	     -5.95454693	    -11.84768105	     16.62381559	      4.21159236	      5.08644818	     24.63944883	      0.43585763	     -5.55629742	      0.34588495	     -0.39981074	     -2.92615634	     -0.97894848	     -0.33693241	      4.56906260	      7.06869794
      1.04816667	     -1.73202755	     -0.90597107	     -2.83444806	     -0.14119835	      0.96840255	      0.32380248	    -11.57399750	      3.86097476	     -5.90929271	    -12.35621106	     16.61330397	      4.14704403	      5.13174215	     24.63903510	      0.57960382	     -5.59359831	      0.28785328	     -0.59593775	     -3.13309942	     -0.91372736	     -0.25645115	      4.44471447	      7.10978239
      1.05233333	     -1.77449768	     -0.81161210	     -2.87626515	     -0.13536240	      0.96780420	      0.32357311	    -11.60361206	      3.70058635	     -5.86613161	    -12.90937938	     16.61305896	      4.06206527	      5.22170882	     24.65612748	      0.72130324	     -5.55779630	      0.13795620	     -0.86018548	     -3.49997527	     -0.77870122	     -0.17966024	      4.34329205	      7.16102365
      1.05650000	     -1.81392485	     -0.67763541	     -2.90637426	     -0.12944442	      0.96727297	      0.32335212	    -11.64121303	      3.50472172	     -5.80647768	    -13.44980295	     16.51812860	      3.91860640	      5.27208330	     24.68974798	      0.89829320	     -5.58401415	     -0.12265151	     -1.09782644	     -3.73362427	     -0.69886552	     -0.09063318	      4.16524561	      7.15627821
      1.06066667	     -1.88388654	     -0.56942416	     -2.92456384	     -0.12356325	      0.96674619	      0.32311213	    -11.61563595	      3.34229527	     -5.73449179	    -14.04709905	     16.46798967	      3.73749199	      5.37903087	     24.77368480	      1.05177467	     -5.51527209	     -0.46871348	     -1.43626575	     -4.19848310	     -0.53834685	      0.03168551	      4.03058299	      7.17325165
      1.06483333	     -1.92973280	     -0.44093932	     -2.93644113	     -0.11763623	      0.96630356	      0.32286059	    -11.60277811	      3.15761414	     -5.66150367	    -14.66764231	     16.32117269	      3.51887383	      5.53936811	     24.83153753	      1.22664424	     -5.42682752	     -0.86959056	     -1.75261685	     -4.66489766	     -0.29986716	      0.12441881	      3.86668679	      7.16137328
      1.06900000	     -1.97392278	     -0.27375062	     -2.93182585	     -0.11163149	      0.96591975	      0.32259406	    -11.58410530	      2.93372674	     -5.61307360	    -15.29969541	     16.13680755	      3.30753464	      5.59868963	     24.91562024	      1.43727403	     -5.44291323	     -1.37535488	     -2.08249239	     -4.94016149	     -0.21598726	      0.22988021	      3.64551528	      7.14069857
      1.07316667	     -1.99207555	     -0.14446401	     -2.89722182	     -0.10564609	      0.96562421	      0.32227769	    -11.58557225	      2.76235552	     -5.53473572	    -15.93977115	     15.90165391	      2.96216499	      6.30276719	     24.93588585	      1.63454826	     -5.21170230	     -1.83485193	     -2.61368142	     -5.67660876	      0.68111985	      0.29251864	      3.48501471	      7.10701130
      1.07733333	     -2.11417059	     -0.00296151	     -2.87868942	     -0.09966891	      0.96521722	      0.32199097	    -11.41162121	      2.57200467	     -5.47893020	    -16.70438884	     15.72214228	      2.76522968	      6.41332556	     25.15637918	      1.81298035	     -5.19715611	     -2.51806153	     -2.92670429	     -6.02160991	      0.79838301	      0.50136369	      3.29191719	      7.07026005
      1.08150000	     -2.19155947	      0.14507663	     -2.83806217	     -0.09365195	      0.96493329	      0.32166854	    -11.28226435	      2.38095363	     -5.40837502	    -17.46613412	     15.44162147	      2.46424466	      6.56283383	     25.29436452	      2.01505549	     -5.06466019	     -3.15656802	     -3.35848798	     -6.53935921	      0.93720508	      0.64814521	      3.10450267	      7.02511049
      1.08566667	     -2.26413243	      0.30042725	     -2.78973824	     -0.08761476	      0.96470861	      0.32132842	    -11.12917623	      2.18174335	     -5.34236407	    -18.27779959	     15.10929646	      2.13821046	      6.75899642	     25.42422594	      2.22757961	     -4.90605302	     -3.81431841	     -3.78723119	     -7.07230674	      1.09302014	      0.79053886	      2.90057462	      6.96484652
      1.08983333	     -2.33048735	      0.45662940	     -2.72946767	     -0.08155055	      0.96454104	      0.32097216	    -10.95674326	      1.98094510	     -5.29834307	    -19.13053412	     14.71790161	      1.82120500	      6.96457265	     25.55490559	      2.44310760	     -4.76459980	     -4.50875170	     -4.22064899	     -7.56151573	      1.23062531	      0.93445296	      2.69088569	      6.90224215
      1.09400000	     -2.36242054	      0.63241661	     -2.64706652	     -0.07544512	      0.96445986	      0.32056562	    -10.80125792	      1.75169246	     -5.30698016	    -20.00371831	     14.15076607	      1.46626133	     10.74740570	     25.63752201	      2.69215859	     -4.57893583	     -5.19648996	     -4.66200411	     -8.11148447	      3.33183673	      1.03228104	      2.45711247	      6.83501782
      1.09816667	     -2.44528912	      0.79736863	     -2.58633216	     -0.06937142	      0.96436481	      0.32019354	    -10.53545336	      1.53762017	     -5.25232743	    -20.98412026	     13.71240164	      1.13312599	     10.79357829	     25.78910469	      2.91163690	     -4.46017741	     -5.92911105	     -5.06947854	     -8.52039666	      3.32028734	      1.19860964	      2.23967793	      6.75756326
      1.10233333	     -2.51892895	      0.96332164	     -2.50460110	     -0.06328455	      0.96433099	      0.31978589	    -10.25613552	      1.32418853	     -5.21299675	    -21.99354028	     13.15677438	      0.78127069	     10.89180207	     25.92102444	      3.14528854	     -4.27882894	     -6.65594589	     -5.45804440	     -8.98107831	      3.30732600	      1.34975612	      2.02293682	      6.68022894
      1.10650000	     -2.57376403	      1.13959257	     -2.42236278	     -0.05718217	      0.96436853	      0.31936729	     -9.95721507	      1.09102541	     -5.19824251	    -23.06612326	     12.53395825	      0.44470481	     11.02448427	     26.01903705	      3.38980720	     -4.10874536	     -7.36733940	     -5.81987645	     -9.38334302	      3.29211940	      1.48229923	      1.79445082	      6.59913597
      1.11066667	     -2.63751795	      1.32754161	     -2.33315389	     -0.05107558	      0.96443490	      0.31893003	     -9.61583707	      0.84535345	     -5.17882742	    -24.18594232	     11.84276596	      0.11158073	     11.18935878	     26.12117506	      3.64925522	     -3.93127481	     -8.07798049	     -6.14178481	     -9.75798211	      3.27314733	      1.62178621	      1.55097633	      6.51685790
      1.11483333	     -2.67718730	      1.51340920	     -2.23852785	     -0.04498148	      0.96456213	      0.31846367	     -9.25914553	      0.59474387	     -5.17247871	    -25.37423208	     11.16685588	     -0.28118247	     11.72256549	     26.18314344	      3.91932918	     -3.69424735	     -8.77126503	     -6.40654324	    -10.27670425	      3.21619245	      1.74086328	      1.30062025	      6.40517211
      1.11900000	     -2.71106403	      1.70020652	     -2.14516681	     -0.03886858	      0.96475484	      0.31801583	     -8.88004838	      0.33539416	     -5.19143623	    -26.58653452	     10.26624780	     -0.53934875	     11.96095986	     26.23743709	      4.17411273	     -3.57760014	     -9.46612156	     -6.67069643	    -10.47656718	      3.18490134	      1.85336891	      1.06025543	      6.34051759
      1.12316667	     -2.69559775	      1.91615459	     -2.02410019	     -0.03273749	      0.96504048	      0.31748259	     -8.53311181	      0.03276153	     -5.26018765	    -27.81953280	      9.27557179	     -0.95145812	     17.01361515	     26.20796297	      4.49203733	     -3.33209285	    -10.11419949	     -6.86206314	    -10.90498255	      2.53592192	      1.89893811	      0.77787011	      6.24375922
      1.12733333	     -2.72967936	      2.13073250	     -1.94994593	     -0.02665912	      0.96528216	      0.31702774	     -8.06081936	     -0.27503972	     -5.26867629	    -29.17892974	      8.36485119	     -1.21215032	     17.04949929	     26.24200404	      4.76860064	     -3.25483902	    -10.78229739	     -6.98281814	    -11.04858045	      2.52796298	      2.01126888	      0.50438704	      6.16995923
      1.13150000	     -2.76951712	      2.33321249	     -1.85609919	     -0.02061404	      0.96555205	      0.31652624	     -7.55673985	     -0.56787613	     -5.27592762	    -30.56205668	      7.37770002	     -1.53175312	     17.20155751	     26.26632300	      5.05432544	     -3.07914903	    -11.42814370	     -7.06140935	    -11.36364736	      2.49440242	      2.12330208	      0.25049326	      6.07323166
      1.13566667	     -2.75521391	      2.55941763	     -1.76002639	     -0.01453862	      0.96593040	      0.31601954	     -7.08869361	     -0.90007383	     -5.31919631	    -31.96657344	      6.26992812	     -1.80426997	     17.28915979	     26.20224646	      5.36231947	     -2.95227891	    -12.01765845	     -7.10356886	    -11.51646457	      2.47306271	      2.17586252	     -0.03955069	      6.00305512
      1.13983333	     -2.75458037	      2.78511504	     -1.66487943	     -0.00850598	      0.96630938	      0.31550193	     -6.56938740	     -1.23630956	     -5.35229517	    -33.41737018	      5.12463241	     -2.08110327	     17.40451615	     26.14027543	      5.67453354	     -2.80576583	    -12.58602350	     -7.09739572	    -11.72658908	      2.44334702	      2.24003759	     -0.32267789	      5.91906034
      1.14400000	     -2.74854334	      3.01071421	     -1.56648757	     -0.00250604	      0.96671386	      0.31497118	     -6.02597067	     -1.57767373	     -5.38663003	    -34.89914885	      3.92023917	     -2.36128102	     17.56001937	     26.05496303	      5.99174601	     -2.65323543	    -13.12227190	     -7.05960437	    -11.95351413	      2.40050903	      2.29696505	     -0.60136261	      5.82738560
      1.14816667	     -2.75327716	      3.24632385	     -1.46980927	      0.00344436	      0.96712067	      0.31440490	     -5.43855992	     -1.93337953	     -5.39471733	    -36.41653010	      2.71257892	     -2.68884001	     18.16967077	     25.95145308	      6.33548870	     -2.41933873	    -13.60445466	     -6.97058213	    -12.34111577	      2.22356274	      2.36352892	     -0.88599223	      5.68604729
